<svg width="64" height="19" viewBox="0 0 64 19" fill="none" xmlns="http://www.w3.org/2000/svg">
<path d="M7.584 18.336C6.208 18.336 4.88 18.168 3.6 17.832C2.336 17.48 1.304 17.032 0.504 16.488L2.064 12.984C2.816 13.464 3.68 13.864 4.656 14.184C5.648 14.488 6.632 14.64 7.608 14.64C8.264 14.64 8.792 14.584 9.192 14.472C9.592 14.344 9.88 14.184 10.056 13.992C10.248 13.784 10.344 13.544 10.344 13.272C10.344 12.888 10.168 12.584 9.816 12.36C9.464 12.136 9.008 11.952 8.448 11.808C7.888 11.664 7.264 11.52 6.576 11.376C5.904 11.232 5.224 11.048 4.536 10.824C3.864 10.6 3.248 10.312 2.688 9.96C2.128 9.592 1.672 9.12 1.32 8.544C0.968 7.952 0.792 7.208 0.792 6.312C0.792 5.304 1.064 4.392 1.608 3.576C2.168 2.76 3 2.104 4.104 1.608C5.208 1.112 6.584 0.863999 8.232 0.863999C9.336 0.863999 10.416 0.991999 11.472 1.248C12.544 1.488 13.496 1.848 14.328 2.328L12.864 5.856C12.064 5.424 11.272 5.104 10.488 4.896C9.704 4.672 8.944 4.56 8.208 4.56C7.552 4.56 7.024 4.632 6.624 4.776C6.224 4.904 5.936 5.08 5.76 5.304C5.584 5.528 5.496 5.784 5.496 6.072C5.496 6.44 5.664 6.736 6 6.96C6.352 7.168 6.808 7.344 7.368 7.488C7.944 7.616 8.568 7.752 9.24 7.896C9.928 8.04 10.608 8.224 11.28 8.448C11.968 8.656 12.592 8.944 13.152 9.312C13.712 9.664 14.16 10.136 14.496 10.728C14.848 11.304 15.024 12.032 15.024 12.912C15.024 13.888 14.744 14.792 14.184 15.624C13.64 16.44 12.816 17.096 11.712 17.592C10.624 18.088 9.248 18.336 7.584 18.336ZM22.8111 18.216C21.1471 18.216 19.8511 17.808 18.9231 16.992C17.9951 16.16 17.5311 14.912 17.5311 13.248V2.088H22.0911V13.2C22.0911 13.664 22.2191 14.032 22.4751 14.304C22.7311 14.56 23.0591 14.688 23.4591 14.688C24.0031 14.688 24.4671 14.552 24.8511 14.28L25.9791 17.472C25.5951 17.728 25.1231 17.912 24.5631 18.024C24.0031 18.152 23.4191 18.216 22.8111 18.216ZM15.6351 8.88V5.472H25.0671V8.88H15.6351ZM27.7374 18V4.992H32.0814V8.784L31.4334 7.704C31.8174 6.728 32.4414 6 33.3054 5.52C34.1694 5.024 35.2174 4.776 36.4494 4.776V8.88C36.2414 8.848 36.0574 8.832 35.8974 8.832C35.7534 8.816 35.5934 8.808 35.4174 8.808C34.4894 8.808 33.7374 9.064 33.1614 9.576C32.5854 10.072 32.2974 10.888 32.2974 12.024V18H27.7374ZM43.8501 18.216C42.7941 18.216 41.8421 18.008 40.9941 17.592C40.1621 17.176 39.5061 16.528 39.0261 15.648C38.5621 14.752 38.3301 13.624 38.3301 12.264V4.992H42.8901V11.52C42.8901 12.528 43.0741 13.248 43.4421 13.68C43.8261 14.112 44.3621 14.328 45.0501 14.328C45.4981 14.328 45.9061 14.224 46.2741 14.016C46.6421 13.808 46.9381 13.48 47.1621 13.032C47.3861 12.568 47.4981 11.976 47.4981 11.256V4.992H52.0581V18H47.7141V14.328L48.5541 15.36C48.1061 16.32 47.4581 17.04 46.6101 17.52C45.7621 17.984 44.8421 18.216 43.8501 18.216ZM60.8033 18.216C59.1393 18.216 57.8433 17.808 56.9153 16.992C55.9873 16.16 55.5233 14.912 55.5233 13.248V2.088H60.0833V13.2C60.0833 13.664 60.2113 14.032 60.4673 14.304C60.7233 14.56 61.0513 14.688 61.4513 14.688C61.9953 14.688 62.4593 14.552 62.8433 14.28L63.9713 17.472C63.5873 17.728 63.1153 17.912 62.5553 18.024C61.9953 18.152 61.4113 18.216 60.8033 18.216ZM53.6273 8.88V5.472H63.0593V8.88H53.6273Z" fill="white"/>
</svg>
